<svg xmlns="http://www.w3.org/2000/svg" width="612" height="396" viewBox="0 0 612 396">
<rect width="100%" height="100%" fill="white"/>
<text x="180" y="30" font-family="Helvetica, Arial, sans-serif" font-size="15" font-weight="700">LM-PnP convergence</text>
<text x="260" y="374" font-family="Helvetica, Arial, sans-serif" font-size="10">Accepted iteration</text>
<text x="18" y="54" font-family="Helvetica, Arial, sans-serif" font-size="10">Weighted cost (log10)</text>
<line x1="72.00" y1="326.00" x2="576.00" y2="326.00" stroke="#d9d9d9" stroke-width="0.7"/>
<text x="25" y="329.00" font-family="Helvetica, Arial, sans-serif" font-size="8">3.71</text>
<line x1="72.00" y1="257.50" x2="576.00" y2="257.50" stroke="#d9d9d9" stroke-width="0.7"/>
<text x="25" y="260.50" font-family="Helvetica, Arial, sans-serif" font-size="8">4.34</text>
<line x1="72.00" y1="189.00" x2="576.00" y2="189.00" stroke="#d9d9d9" stroke-width="0.7"/>
<text x="25" y="192.00" font-family="Helvetica, Arial, sans-serif" font-size="8">4.97</text>
<line x1="72.00" y1="120.50" x2="576.00" y2="120.50" stroke="#d9d9d9" stroke-width="0.7"/>
<text x="25" y="123.50" font-family="Helvetica, Arial, sans-serif" font-size="8">5.6</text>
<line x1="72.00" y1="52.00" x2="576.00" y2="52.00" stroke="#d9d9d9" stroke-width="0.7"/>
<text x="25" y="55.00" font-family="Helvetica, Arial, sans-serif" font-size="8">6.23</text>
<line x1="72.00" y1="326.00" x2="72.00" y2="52.00" stroke="#d9d9d9" stroke-width="0.7"/>
<text x="64.00" y="344.00" font-family="Helvetica, Arial, sans-serif" font-size="8">0</text>
<line x1="156.00" y1="326.00" x2="156.00" y2="52.00" stroke="#d9d9d9" stroke-width="0.7"/>
<text x="148.00" y="344.00" font-family="Helvetica, Arial, sans-serif" font-size="8">1</text>
<line x1="240.00" y1="326.00" x2="240.00" y2="52.00" stroke="#d9d9d9" stroke-width="0.7"/>
<text x="232.00" y="344.00" font-family="Helvetica, Arial, sans-serif" font-size="8">2</text>
<line x1="324.00" y1="326.00" x2="324.00" y2="52.00" stroke="#d9d9d9" stroke-width="0.7"/>
<text x="316.00" y="344.00" font-family="Helvetica, Arial, sans-serif" font-size="8">3</text>
<line x1="408.00" y1="326.00" x2="408.00" y2="52.00" stroke="#d9d9d9" stroke-width="0.7"/>
<text x="400.00" y="344.00" font-family="Helvetica, Arial, sans-serif" font-size="8">4</text>
<line x1="492.00" y1="326.00" x2="492.00" y2="52.00" stroke="#d9d9d9" stroke-width="0.7"/>
<text x="484.00" y="344.00" font-family="Helvetica, Arial, sans-serif" font-size="8">5</text>
<line x1="576.00" y1="326.00" x2="576.00" y2="52.00" stroke="#d9d9d9" stroke-width="0.7"/>
<text x="568.00" y="344.00" font-family="Helvetica, Arial, sans-serif" font-size="8">6</text>
<path d="M 72.00 326.00 L 72.00 52.00 M 72.00 326.00 L 576.00 326.00" stroke="#000" fill="none" stroke-width="1"/>
<polyline points="72.00,70.90 156.00,129.26 240.00,129.58 324.00,129.58 408.00,129.58 492.00,129.58 576.00,129.58" fill="none" stroke="#1f59bf" stroke-width="1.8"/>
<rect x="70.00" y="68.90" width="4" height="4" fill="#1f59bf"/>
<rect x="154.00" y="127.26" width="4" height="4" fill="#1f59bf"/>
<rect x="238.00" y="127.58" width="4" height="4" fill="#1f59bf"/>
<rect x="322.00" y="127.58" width="4" height="4" fill="#1f59bf"/>
<rect x="406.00" y="127.58" width="4" height="4" fill="#1f59bf"/>
<rect x="490.00" y="127.58" width="4" height="4" fill="#1f59bf"/>
<rect x="574.00" y="127.58" width="4" height="4" fill="#1f59bf"/>
<rect x="458.00" y="66.00" width="10" height="4" fill="#1f59bf"/>
<text x="474.00" y="70.00" font-family="Helvetica, Arial, sans-serif" font-size="9">Ordinary-LM</text>
<polyline points="72.00,221.95 156.00,300.56 240.00,307.09 324.00,307.10 408.00,307.10 492.00,307.10 576.00,307.10" fill="none" stroke="#cc332e" stroke-width="1.8"/>
<rect x="70.00" y="219.95" width="4" height="4" fill="#cc332e"/>
<rect x="154.00" y="298.56" width="4" height="4" fill="#cc332e"/>
<rect x="238.00" y="305.09" width="4" height="4" fill="#cc332e"/>
<rect x="322.00" y="305.10" width="4" height="4" fill="#cc332e"/>
<rect x="406.00" y="305.10" width="4" height="4" fill="#cc332e"/>
<rect x="490.00" y="305.10" width="4" height="4" fill="#cc332e"/>
<rect x="574.00" y="305.10" width="4" height="4" fill="#cc332e"/>
<rect x="458.00" y="82.00" width="10" height="4" fill="#cc332e"/>
<text x="474.00" y="86.00" font-family="Helvetica, Arial, sans-serif" font-size="9">Huber-LM</text>
</svg>