<svg xmlns="http://www.w3.org/2000/svg" width="612" height="396" viewBox="0 0 612 396">
<rect width="100%" height="100%" fill="white"/>
<text x="180" y="30" font-family="Helvetica, Arial, sans-serif" font-size="15" font-weight="700">Huber threshold ablation</text>
<text x="260" y="374" font-family="Helvetica, Arial, sans-serif" font-size="10">Huber delta</text>
<text x="18" y="54" font-family="Helvetica, Arial, sans-serif" font-size="10">Clean RMSE (px)</text>
<line x1="72.00" y1="326.00" x2="576.00" y2="326.00" stroke="#d9d9d9" stroke-width="0.7"/>
<text x="25" y="329.00" font-family="Helvetica, Arial, sans-serif" font-size="8">-0.241</text>
<line x1="72.00" y1="257.50" x2="576.00" y2="257.50" stroke="#d9d9d9" stroke-width="0.7"/>
<text x="25" y="260.50" font-family="Helvetica, Arial, sans-serif" font-size="8">0.632</text>
<line x1="72.00" y1="189.00" x2="576.00" y2="189.00" stroke="#d9d9d9" stroke-width="0.7"/>
<text x="25" y="192.00" font-family="Helvetica, Arial, sans-serif" font-size="8">1.5</text>
<line x1="72.00" y1="120.50" x2="576.00" y2="120.50" stroke="#d9d9d9" stroke-width="0.7"/>
<text x="25" y="123.50" font-family="Helvetica, Arial, sans-serif" font-size="8">2.38</text>
<line x1="72.00" y1="52.00" x2="576.00" y2="52.00" stroke="#d9d9d9" stroke-width="0.7"/>
<text x="25" y="55.00" font-family="Helvetica, Arial, sans-serif" font-size="8">3.25</text>
<line x1="72.00" y1="326.00" x2="72.00" y2="52.00" stroke="#d9d9d9" stroke-width="0.7"/>
<text x="64.00" y="344.00" font-family="Helvetica, Arial, sans-serif" font-size="8">2</text>
<line x1="223.20" y1="326.00" x2="223.20" y2="52.00" stroke="#d9d9d9" stroke-width="0.7"/>
<text x="215.20" y="344.00" font-family="Helvetica, Arial, sans-serif" font-size="8">5</text>
<line x1="576.00" y1="326.00" x2="576.00" y2="52.00" stroke="#d9d9d9" stroke-width="0.7"/>
<text x="568.00" y="344.00" font-family="Helvetica, Arial, sans-serif" font-size="8">12</text>
<path d="M 72.00 326.00 L 72.00 52.00 M 72.00 326.00 L 576.00 326.00" stroke="#000" fill="none" stroke-width="1"/>
<polyline points="72.00,264.46 223.20,217.59 576.00,70.90" fill="none" stroke="#1f59bf" stroke-width="1.8"/>
<rect x="70.00" y="262.46" width="4" height="4" fill="#1f59bf"/>
<rect x="221.20" y="215.59" width="4" height="4" fill="#1f59bf"/>
<rect x="574.00" y="68.90" width="4" height="4" fill="#1f59bf"/>
<rect x="458.00" y="66.00" width="10" height="4" fill="#1f59bf"/>
<text x="474.00" y="70.00" font-family="Helvetica, Arial, sans-serif" font-size="9">Clean RMSE</text>
</svg>