<svg xmlns="http://www.w3.org/2000/svg" width="612" height="396" viewBox="0 0 612 396">
<rect width="100%" height="100%" fill="white"/>
<text x="180" y="30" font-family="Helvetica, Arial, sans-serif" font-size="15" font-weight="700">Noise sensitivity</text>
<text x="260" y="374" font-family="Helvetica, Arial, sans-serif" font-size="10">noise_sigma</text>
<text x="18" y="54" font-family="Helvetica, Arial, sans-serif" font-size="10">Clean reprojection RMSE (px)</text>
<line x1="72.00" y1="326.00" x2="576.00" y2="326.00" stroke="#d9d9d9" stroke-width="0.7"/>
<text x="25" y="329.00" font-family="Helvetica, Arial, sans-serif" font-size="8">-1.44</text>
<line x1="72.00" y1="257.50" x2="576.00" y2="257.50" stroke="#d9d9d9" stroke-width="0.7"/>
<text x="25" y="260.50" font-family="Helvetica, Arial, sans-serif" font-size="8">3.79</text>
<line x1="72.00" y1="189.00" x2="576.00" y2="189.00" stroke="#d9d9d9" stroke-width="0.7"/>
<text x="25" y="192.00" font-family="Helvetica, Arial, sans-serif" font-size="8">9.01</text>
<line x1="72.00" y1="120.50" x2="576.00" y2="120.50" stroke="#d9d9d9" stroke-width="0.7"/>
<text x="25" y="123.50" font-family="Helvetica, Arial, sans-serif" font-size="8">14.2</text>
<line x1="72.00" y1="52.00" x2="576.00" y2="52.00" stroke="#d9d9d9" stroke-width="0.7"/>
<text x="25" y="55.00" font-family="Helvetica, Arial, sans-serif" font-size="8">19.5</text>
<line x1="72.00" y1="326.00" x2="72.00" y2="52.00" stroke="#d9d9d9" stroke-width="0.7"/>
<text x="64.00" y="344.00" font-family="Helvetica, Arial, sans-serif" font-size="8">0.5</text>
<line x1="576.00" y1="326.00" x2="576.00" y2="52.00" stroke="#d9d9d9" stroke-width="0.7"/>
<text x="568.00" y="344.00" font-family="Helvetica, Arial, sans-serif" font-size="8">2</text>
<path d="M 72.00 326.00 L 72.00 52.00 M 72.00 326.00 L 576.00 326.00" stroke="#000" fill="none" stroke-width="1"/>
<polyline points="72.00,70.90 576.00,84.16" fill="none" stroke="#1f59bf" stroke-width="1.8"/>
<rect x="70.00" y="68.90" width="4" height="4" fill="#1f59bf"/>
<rect x="574.00" y="82.16" width="4" height="4" fill="#1f59bf"/>
<rect x="458.00" y="66.00" width="10" height="4" fill="#1f59bf"/>
<text x="474.00" y="70.00" font-family="Helvetica, Arial, sans-serif" font-size="9">Ordinary-LM</text>
<polyline points="72.00,299.21 576.00,298.70" fill="none" stroke="#cc332e" stroke-width="1.8"/>
<rect x="70.00" y="297.21" width="4" height="4" fill="#cc332e"/>
<rect x="574.00" y="296.70" width="4" height="4" fill="#cc332e"/>
<rect x="458.00" y="82.00" width="10" height="4" fill="#cc332e"/>
<text x="474.00" y="86.00" font-family="Helvetica, Arial, sans-serif" font-size="9">Huber-LM</text>
</svg>